<svg width="30" height="30" viewBox="0 0 30 30" fill="none" xmlns="http://www.w3.org/2000/svg">
<path d="M8.29207 17.7154C7.85756 17.7154 7.72717 17.6185 7.61079 18.0193C7.33175 18.9805 7.0986 20.0058 6.68845 20.9226C6.60488 21.1094 6.51587 21.9542 6.19584 21.6982C5.9366 21.4908 5.59666 22.0947 5.46216 21.9602" stroke="#B5D6E6" stroke-width="3" stroke-linecap="round" stroke-linejoin="round"/>
<path d="M4.70747 15.5459C4.70747 16.3319 4.70747 17.118 4.70747 17.9041C4.70747 18.7114 4.54916 19.4523 4.5188 20.2414C4.50541 20.5896 4.33014 20.939 4.33014 21.3C4.33014 21.5042 4.2937 21.9617 4.21485 22.149C4.12555 22.3611 3.29251 23.4808 3.29251 22.7621C3.29251 22.1755 3.38684 21.6405 3.38684 21.0642C3.38684 20.6229 3.48117 19.3022 3.48117 19.7436C3.48117 20.3816 3.42718 20.8591 3.29775 21.4415C3.25737 21.6232 3.19938 22.1292 3.05668 22.2433C2.96852 22.3138 3.00952 22.5787 3.00952 22.5787C3.00952 22.5787 3.00952 22.2922 3.00952 22.149C3.00952 20.7749 3.19818 19.4407 3.19818 18.0718C3.19818 16.7739 3.19818 15.476 3.19818 14.1781C3.19818 12.8732 3.19818 11.5683 3.19818 10.2634C3.19818 9.65021 3.19818 9.03706 3.19818 8.42391C3.19818 7.83919 3.17082 7.12451 3.38684 6.58447" stroke="#B5D6E6" stroke-width="3" stroke-linecap="round" stroke-linejoin="round"/>
<path d="M3.19824 7.81076C3.19824 7.53776 3.2284 7.01841 3.40787 6.79408C3.57344 6.58712 3.46272 6.23028 3.64893 5.99752C3.9316 5.64419 4.33765 4.93317 4.74945 4.69785C4.9764 4.56817 5.08898 4.30776 5.32068 4.17904C5.55092 4.05112 5.76337 3.8819 5.98623 3.75455C6.17041 3.64931 6.53339 3.47156 6.73563 3.47156C7.11913 3.47156 7.53088 3.20392 7.91476 3.09424" stroke="#B5D6E6" stroke-width="3" stroke-linecap="round" stroke-linejoin="round"/>
<path d="M3.29258 22.998C2.99245 22.998 3.554 23.578 3.59654 23.6584C3.69577 23.8458 3.84757 23.9876 3.95289 24.1719C4.11571 24.4569 3.98064 24.1054 3.93193 24.0566C3.62705 23.7518 3.3642 23.7719 3.74327 24.151C4.00878 24.4165 4.14956 24.7459 4.40358 24.9999C4.83734 25.4337 5.29136 25.7102 5.76613 26.09C5.99777 26.2753 6.45779 26.3603 6.70944 26.5616C6.93176 26.7395 7.82216 26.7713 7.53745 26.7713" stroke="#B5D6E6" stroke-width="3" stroke-linecap="round" stroke-linejoin="round"/>
<path d="M5.46216 25.2617C5.46216 25.4845 5.16532 25.5336 5.415 25.7334C5.76208 26.011 5.15839 25.7334 5.60366 25.7334C6.35959 25.7334 6.41791 26.2015 7.01861 26.5352C8.00507 27.0832 9.24637 26.8653 10.3202 26.8653C10.9326 26.8653 11.4565 26.8048 12.0653 26.771C12.2017 26.7634 12.8125 26.5225 12.8933 26.6033C13.0969 26.8069 12.4099 26.771 12.3483 26.771C11.8551 26.771 14.3088 26.5823 13.8156 26.5823C13.7174 26.5823 13.5866 26.7066 13.5222 26.771C13.4555 26.8377 13.2392 26.771 13.2392 26.771C13.2392 26.771 13.7754 26.6767 14.0462 26.6767" stroke="#B5D6E6" stroke-width="3" stroke-linecap="round" stroke-linejoin="round"/>
<path d="M14.1405 26.4883C14.1405 26.6318 14.2016 26.932 14.3292 26.6769" stroke="#61177C" stroke-width="3" stroke-linecap="round" stroke-linejoin="round"/>
<path d="M14.3292 26.6769C14.3292 24.768 14.2296 22.9093 14.3292 21.017C14.3512 20.5986 14.5893 20.202 14.6122 19.7907C14.6288 19.4905 14.702 18.568 14.9423 18.3758C15.1043 18.2462 15.0639 17.807 15.1362 17.6211C15.2221 17.4004 15.3404 17.1821 15.3721 16.9608C15.4362 16.5119 15.6402 15.2346 16.1215 15.0742" stroke="#B5D6E6" stroke-width="3" stroke-linecap="round" stroke-linejoin="round"/>
<path d="M14.3292 21.6773C14.3292 21.0679 14.3913 20.4653 14.4236 19.885C14.455 19.3198 14.4236 20.4613 14.4236 20.6606C14.4236 21.0869 14.4236 21.5131 14.4236 21.9393C14.4236 22.0389 14.4042 22.592 14.4236 22.2433C14.4394 21.9579 14.5317 21.0059 14.7537 20.8283C14.9254 20.691 15.2725 19.6795 15.2725 19.4605C15.2725 19.058 15.7372 18.6597 15.8333 18.3233C15.9392 17.9525 16.4265 17.7603 16.5932 17.3853C16.7372 17.0612 17.0807 16.8086 17.3268 16.5625C17.8419 16.0474 18.5634 15.5732 19.161 15.0951C19.3287 14.961 19.9745 14.7088 20.1777 14.6968C20.5228 14.6765 19.9941 14.691 19.8947 14.6968C19.7741 14.7039 19.4919 14.8174 19.4231 14.9379C19.3171 15.1234 18.724 15.4707 19.0877 15.2628C19.4209 15.0724 19.788 14.9839 20.1253 14.7912C20.4502 14.6055 20.721 14.5214 21.0791 14.4191C21.2414 14.3727 21.3954 14.2748 21.5507 14.2304C21.6744 14.1951 22.0041 14.1309 21.97 14.1309" stroke="#B5D6E6" stroke-width="3" stroke-linecap="round" stroke-linejoin="round"/>
<path d="M16.9705 16.7721C17.1132 16.7721 17.0723 17.2411 17.1644 16.9189C17.189 16.8328 17.5119 16.5103 17.5836 16.4944C17.9383 16.4156 18.246 16.0102 18.5007 15.7555C18.7632 15.4929 19.4216 15.4533 19.6117 15.2157C19.8352 14.9364 20.6015 14.8868 20.7437 14.6025" stroke="#B5D6E6" stroke-width="3" stroke-linecap="round" stroke-linejoin="round"/>
<path d="M13.7632 14.8854C13.6479 14.7846 13.6143 16.2251 13.585 16.3842C13.2191 18.366 12.4091 20.2604 11.887 22.2012C11.7939 22.5475 11.7552 23.753 11.4259 23.9725C11.3934 23.9942 11.4056 23.8963 11.4049 23.8572C11.3992 23.5362 11.4049 23.214 11.4049 22.893C11.4049 21.0134 11.4015 19.1337 11.4049 17.2541C11.4102 14.2784 11.5901 11.4758 12.1595 8.56524C12.2829 7.93467 12.6169 6.74026 12.7465 8.00974C13.0315 10.8026 13.1028 13.5786 13.1028 16.3842C13.1028 16.4745 12.9718 16.9396 12.9142 16.6515C12.5825 14.9931 12.7255 13.2261 12.7255 11.5471C12.7255 11.2233 12.689 8.48139 12.8723 8.48139C13.4486 8.48139 13.3846 11.9596 13.3858 12.2651C13.392 13.8608 13.477 15.4922 13.3649 17.0864C13.3447 17.3735 13.2992 18.3142 12.9142 18.449C11.9766 18.7771 11.7822 13.6406 11.7822 12.9202C11.7822 12.8491 11.7169 12.283 11.8346 12.2494C12.2676 12.1257 12.5314 12.4737 12.7727 12.7734C13.3561 13.4983 13.6169 14.5481 13.6688 15.4566C13.718 16.3177 13.9843 17.3663 13.4959 18.145C13.0321 18.8845 12.0466 19.2588 11.232 18.7739C10.1529 18.1316 9.83959 16.0957 9.72267 14.9849C9.65861 14.3763 9.53595 13.2936 9.81176 12.742C10.0669 12.2316 10.873 12.2175 11.3525 12.2441C12.2153 12.2921 12.8249 13.4097 13.0504 14.1412C13.3603 15.1462 13.383 16.3649 13.2705 17.4113C13.1627 18.4149 12.561 19.385 11.6669 19.8639C10.1567 20.673 9.09546 19.9383 8.38108 18.4804C7.77517 17.2439 7.75621 15.8018 7.67885 14.4556C7.63175 13.6362 7.46237 12.6761 8.15574 12.0659C8.63001 11.6486 9.95317 11.0823 10.3673 11.7725" stroke="#B5D6E6" stroke-width="3" stroke-linecap="round" stroke-linejoin="round"/>
<path d="M8.10339 3.09433C10.2629 3.09433 12.4339 3 14.6122 3C15.0996 3 15.5869 3 16.0743 3C16.5631 3 17.0498 3.18866 17.5364 3.18866C17.9844 3.18866 18.4222 3.28299 18.9042 3.28299C19.14 3.28299 19.3759 3.28299 19.6117 3.28299C19.807 3.28299 20.4465 3.19435 19.989 3.37732" stroke="#B5D6E6" stroke-width="3" stroke-linecap="round" stroke-linejoin="round"/>
<path d="M16.0271 3.09433C16.6874 3.09433 17.3477 3.09433 18.008 3.09433C18.3417 3.09433 19.4328 2.9135 19.685 3.11529C19.8555 3.2517 19.2469 3.18866 19.119 3.18866C18.5915 3.18866 18.0639 3.18866 17.5364 3.18866C16.9953 3.18866 16.5098 3 16.0271 3" stroke="#B5D6E6" stroke-width="3" stroke-linecap="round" stroke-linejoin="round"/>
<path d="M21.4983 14.414C22.3282 14.414 23.2205 14.3196 23.998 14.3196C24.835 14.3196 25.8992 14.1515 26.6865 14.414" stroke="#B5D6E6" stroke-width="3" stroke-linecap="round" stroke-linejoin="round"/>
<path d="M20.0834 3.09424C21.2574 3.09424 22.7895 3.20276 23.7413 3.96417C24.1408 4.28381 24.5619 4.60665 24.9152 4.95988C25.1536 5.19825 25.396 5.43024 25.6279 5.66212C25.8071 5.84128 25.913 6.17315 26.0734 6.30147C26.2747 6.46257 26.1743 6.91051 26.3563 7.05611C26.5204 7.18734 26.7808 7.75661 26.7808 7.95225C26.7808 8.59957 26.8752 9.3395 26.8752 10.0275C26.8752 11.4321 26.9695 12.7405 26.9695 14.1309" stroke="#B5D6E6" stroke-width="3" stroke-linecap="round" stroke-linejoin="round"/>
<path d="M12.5369 9.60279C12.3246 9.57626 12.4226 8.44698 12.5474 8.27169C13.0899 7.5095 13.6909 6.8151 14.5597 6.44273C14.847 6.31962 15.1119 6.14782 15.4035 6.01824C15.5749 5.94204 15.7503 5.93163 15.9328 5.85054C16.1947 5.73414 16.4938 5.78099 16.7818 5.64092C17.2652 5.40572 17.7957 5.31999 18.291 5.12734C18.825 4.91968 19.3717 4.79194 19.9418 4.79194C20.2119 4.79194 21.1681 4.64097 21.383 4.81291C22.0113 5.31555 23.1063 5.05641 23.8565 5.47322C24.6886 5.93548 25.019 7.30516 25.1719 8.14591C25.2476 8.56204 25.0761 9.02165 25.2505 9.41413C25.3835 9.71326 25.4601 10.3167 25.4601 10.6404C25.4601 11.0623 25.2841 11.2801 25.1824 11.6361C25.1489 11.7533 24.999 12.0069 24.999 12.1025C24.999 12.1317 25.4612 12.1999 25.5335 12.265C25.9353 12.6266 25.6257 12.527 25.2243 12.527C24.7369 12.527 24.2496 12.527 23.7622 12.527C23.3391 12.527 22.9462 12.4327 22.5359 12.4327C22.0928 12.4327 21.6932 12.527 21.2624 12.527C20.5878 12.527 20.7105 12.3283 21.1209 11.9611C22.1847 11.0093 22.7596 9.81431 23.5211 8.61756C23.7713 8.22439 23.0365 8.13736 22.7665 8.08827C22.0941 7.96601 21.4279 7.60276 20.8589 7.24453C20.6679 7.12426 20.4253 7.10454 20.251 6.9825C20.1504 6.91206 18.8694 8.32737 18.7732 8.41318C17.501 9.54711 16.077 10.5205 14.5597 11.3007C13.6655 11.7606 13.7456 11.0976 13.7632 10.326C13.7769 9.72405 14.8511 9.36452 15.2725 9.03681C15.9119 8.53949 16.6282 7.90485 17.463 7.90485C18.2385 7.90485 18.7094 8.63133 18.9985 9.2674C19.1982 9.70677 19.14 10.2123 19.14 10.6876C19.14 11.2074 18.6922 11.5072 18.6684 11.9611C18.6592 12.1351 18.5041 12.297 18.595 12.0344C18.7142 11.69 19.0147 11.4043 19.14 11.0597C19.2248 10.8266 19.5098 10.3602 19.7479 10.2736C20.0052 10.18 20.0017 10.3969 20.1043 10.5251C20.3621 10.8475 20.0087 12.8628 19.4754 12.7105C19.2697 12.6517 19.3287 12.196 19.3287 12.0501C19.3287 11.523 19.4603 11.3525 19.7794 10.9234C20.1686 10.4 20.4349 9.79642 20.817 9.2674C20.9038 9.14715 21.2226 8.54879 21.0266 8.98965C20.7212 9.67681 20.4746 10.4827 20.2772 11.2064C20.0583 12.009 19.8548 12.202 19.2134 12.6214C18.8226 12.8769 18.4796 13.0826 18.1443 13.4179C17.7492 13.813 18.5287 13.294 18.7627 13.2817C19.233 13.2569 19.6938 13.1873 20.1776 13.1873C20.3891 13.1873 20.5692 13.2817 20.251 13.2817C19.801 13.2817 19.3834 13.2678 18.9409 13.1873C18.2021 13.053 17.0018 12.7402 16.3311 13.1873C15.9101 13.468 15.7981 13.7777 15.5974 14.2459C15.3932 14.7223 15.1427 15.3104 15.0786 15.8234C15.0328 16.1896 14.879 16.1544 15.0419 15.8286C15.2473 15.4178 15.5408 15.0528 15.8332 14.7019C16.3389 14.095 18.3046 12.744 17.746 13.3026C17.5092 13.5395 17.5648 14.0008 17.3477 14.2721C17.1471 14.523 16.6484 15.3381 16.3101 15.3569C15.8511 15.3824 15.3038 14.8034 15.1572 14.3927C14.9669 13.86 14.8048 13.333 14.7274 12.7681C14.663 12.2974 14.5178 10.8833 14.5178 11.3584C14.5178 11.6199 14.3636 11.897 14.3344 12.1602C14.268 12.7575 14.1514 13.3215 14.0671 13.921C13.8424 15.5191 13.5843 17.1297 13.2968 18.7109C13.187 19.3144 13.1972 19.9703 13.1972 20.587C13.1972 20.9799 13.0085 22.1433 13.0085 21.7504C13.0085 21.412 12.9991 21.0721 13.0085 20.7338C13.0202 20.3123 13.2945 19.9448 13.433 19.5599C13.6786 18.8777 14.1852 18.1478 14.5702 17.5318C14.8046 17.1568 15.0514 16.71 15.3668 16.3946C15.4795 16.2819 16.34 15.291 16.3101 15.8286C16.2801 16.368 15.3169 16.8323 14.9895 17.1597C13.9224 18.2267 13.3859 19.4084 13.3859 20.8805C13.3859 21.4134 13.3515 21.905 13.2863 22.4265C13.2095 23.0405 12.7941 23.6071 12.7255 24.224C12.7134 24.3333 12.3896 24.3592 12.4635 24.507C12.5012 24.5823 13.0223 24.79 12.6784 24.79C12.3448 24.79 13.6044 24.8843 12.6312 24.8843C11.881 24.8843 11.0966 24.9786 10.3201 24.9786C10.1957 24.9786 9.97561 24.9371 9.89564 24.8371C9.81518 24.7366 9.46438 24.7765 9.32965 24.7166C9.17769 24.6491 8.92811 24.6957 8.76367 24.6957C8.50636 24.6957 8.3656 24.6003 8.62218 24.7428C8.83416 24.8606 9.24337 25.2616 8.81084 25.2616C8.58396 25.2616 7.96842 25.1348 7.79941 24.9996C7.54403 24.7953 7.04493 24.9147 6.73557 24.7428C6.45401 24.5864 6.09611 24.5331 5.86039 24.2974C5.06094 23.4979 4.89613 22.4745 4.89613 21.3364C4.89613 21.1404 4.71518 19.5462 5.27345 20.0735C5.615 20.396 5.94059 20.6669 6.25868 21.0168C6.52973 21.3149 6.66811 21.689 6.92423 22.002C7.53991 22.7545 9.52504 22.642 10.1577 21.9391C10.5213 21.535 10.273 20.3615 10.273 19.8429C10.273 19.3652 10.3463 20.1206 10.362 20.2621C10.3953 20.5611 10.4238 20.9275 10.535 21.2054C10.6481 21.4882 10.6503 22.1226 10.6503 22.4317C10.6503 22.5479 10.7156 22.894 10.5559 22.9034C10.2896 22.919 9.90268 22.5406 9.75938 22.3322C8.54688 20.5685 8.8743 18.3656 8.05095 16.4837C7.7551 15.8074 7.42268 14.6023 6.45258 14.6023C6.0507 14.6023 6.21675 15.6297 6.21675 15.9229C6.21675 16.4921 6.24695 17.0268 6.0805 17.5737C5.98324 17.8933 5.66478 19.2903 5.17912 19.3188C3.94307 19.3915 4.51881 18.2457 4.51881 17.5737C4.51881 16.8281 4.70747 16.1222 4.70747 15.3779C4.70747 14.3176 4.70747 13.2572 4.70747 12.1969C4.70747 11.2126 5.08479 10.3022 5.08479 9.3198C5.08479 8.46378 5.43058 7.59989 5.81847 6.86721C5.93567 6.64582 6.17912 6.24882 6.47878 6.24882C6.81967 6.24882 5.84229 6.49581 5.51451 6.58946C5.35033 6.63637 4.76332 7.09784 5.25249 6.65759C5.50629 6.42916 5.78434 6.18747 6.0805 6.01824C6.73706 5.64306 7.19136 4.9806 8.00903 4.9806C8.39242 4.9806 8.81473 4.85555 9.1934 4.7867C9.7043 4.69381 10.2739 4.63928 10.7656 4.48799C11.8191 4.16383 12.9911 4.22596 14.0933 4.22596C14.4699 4.22596 14.817 4.41462 15.1781 4.41462C15.5599 4.41462 15.9037 4.43437 16.2629 4.51419C16.8665 4.64832 16.905 4.74372 16.6822 5.2636C16.4637 5.77345 15.8857 6.22031 15.5712 6.67855C14.3374 8.47639 13.0422 10.2487 11.9185 12.1183C10.8692 13.864 9.47389 15.7709 9.14099 17.8515C9.06341 18.3363 8.95223 18.8469 9.16196 19.3188C9.30772 19.6468 9.23081 18.784 9.25629 18.6375C9.41167 17.7441 9.47068 16.8686 9.7489 15.9963C10.0904 14.9257 10.6823 14.0541 11.2163 13.093C11.2584 13.0172 11.6927 12.5673 11.777 12.8624C11.8583 13.1471 11.7406 13.4493 11.646 13.7062C11.4295 14.2937 11.4329 14.8953 11.3316 15.5037C11.2322 16.0997 11.2868 17.0576 10.6974 17.385C9.74814 17.9124 9.98997 13.9547 9.98997 13.5227C9.98997 12.4288 9.97123 11.446 10.3201 10.3994C10.4933 9.87991 10.5928 9.34539 10.7656 8.82719C11.0051 8.10874 10.588 6.86721 11.5726 6.86721C11.7543 6.86721 12.2993 6.86721 12.1176 6.86721C11.6844 6.86721 11.2512 6.86721 10.818 6.86721C9.94263 6.86721 9.17398 6.84855 8.34443 7.1502C7.57388 7.4304 7.9147 9.32005 7.9147 9.90675C7.9147 11.2063 7.76274 12.5271 8.23961 13.7533C8.33664 14.0028 8.41854 14.2991 8.47544 14.5551C8.52431 14.775 8.13811 14.6966 8.00903 14.6966C7.29886 14.6966 5.65694 14.1479 5.38874 13.397C5.15479 12.7419 5.68868 12.4105 6.16435 12.1078C6.34321 11.994 6.55022 11.9225 6.73557 11.8196C6.86779 11.7461 7.19499 11.6781 7.16006 11.6781" stroke="#B5D6E6" stroke-width="3" stroke-linecap="round" stroke-linejoin="round"/>
<path d="M12.6312 5.64111C12.6312 5.9241 12.6312 6.2071 12.6312 6.49009" stroke="#B5D6E6" stroke-width="3" stroke-linecap="round" stroke-linejoin="round"/>
<path d="M12.8199 24.0356C12.8199 24.4714 12.8991 24.5698 13.1029 24.9265C13.2554 25.1934 13.3859 25.4024 13.3859 25.7336" stroke="#B5D6E6" stroke-width="3" stroke-linecap="round" stroke-linejoin="round"/>
<path d="M7.82037 13.7534C7.82037 14.2802 7.63171 14.7342 7.63171 15.2627" stroke="#B5D6E6" stroke-width="3" stroke-linecap="round" stroke-linejoin="round"/>
<path d="M1 6.89746V22.9924" stroke="#61177C" stroke-width="2" stroke-linecap="round" stroke-linejoin="round"/>
<path d="M7.42615 1H22.6297" stroke="#61177C" stroke-width="2" stroke-linecap="round" stroke-linejoin="round"/>
<path d="M8.04724 28.6113H14.6814" stroke="#61177C" stroke-width="2" stroke-linecap="round" stroke-linejoin="round"/>
<path d="M16.0687 23.5039V28.573" stroke="#61177C" stroke-width="2" stroke-linecap="round" stroke-linejoin="round"/>
<path d="M1.09738 6.62513C1.09738 6.7403 1.03638 6.71748 1.03638 6.60432C1.03638 6.42374 1.10521 6.28176 1.15787 6.11355C1.22022 5.91439 1.35781 5.74508 1.43696 5.55282C1.54175 5.29825 1.66921 5.04215 1.81592 4.80926C2.55729 3.63242 3.57454 2.74002 4.74758 2.01171C5.11119 1.78596 5.52643 1.68458 5.88756 1.46978C6.12329 1.32957 6.37438 1.31536 6.62924 1.22796C7.01772 1.09475 7.3782 1.11122 7.77281 1.05371" stroke="#61177C" stroke-width="2" stroke-linecap="round" stroke-linejoin="round"/>
<path d="M28.3004 7.98291V15.5263" stroke="#61177C" stroke-width="2" stroke-linecap="round" stroke-linejoin="round"/>
<path d="M22.7786 1.15705C22.7786 1.13986 23.0384 1.25294 23.0838 1.26618C23.142 1.28319 23.1985 1.30964 23.2534 1.33566C23.5238 1.46382 23.8137 1.55594 24.0822 1.68965C24.339 1.8176 24.4987 2.03133 24.725 2.20286C24.9372 2.36381 25.1529 2.52105 25.3683 2.67822C25.8615 3.0382 26.3085 3.59507 26.6886 4.07277C27.278 4.81336 27.7988 5.59101 28.1262 6.48223C28.22 6.73743 28.177 7.04493 28.2463 7.3115C28.3108 7.5595 28.3694 7.7009 28.3694 7.96879" stroke="#61177C" stroke-width="2" stroke-linecap="round" stroke-linejoin="round"/>
<path d="M27.9487 16C27.9944 16 28.0111 16.6408 27.9924 16.7604C27.9621 16.954 27.9268 17.1467 27.8995 17.3403C27.8347 17.8003 27.5281 18.188 27.3422 18.5933C27.194 18.9166 26.9858 19.2125 26.7971 19.5091C26.5592 19.8832 26.3603 20.2898 26.0952 20.6433C25.5199 21.4103 24.8438 22.1175 24.1767 22.791C23.5455 23.4281 22.9564 24.1253 22.3043 24.7366C22.0387 24.9856 21.7905 25.2494 21.5159 25.4883C21.1799 25.7806 20.8842 26.1511 20.5379 26.423C20.2377 26.6587 19.9447 26.9435 19.6289 27.1515C19.3962 27.3048 19.1277 27.4375 18.9244 27.6335C18.6104 27.9362 16.3778 28.3052 15.9999 28.5C15.6555 28.6776 16.3828 27.9065 16 28C15.818 28.0445 16.4748 27.572 16.3572 28.2121C15.9748 27.2288 16.5 27.5 15.5 28.5" stroke="#61177C" stroke-width="2" stroke-linecap="round" stroke-linejoin="round"/>
<path d="M27.7877 16.1268C27.7877 16.0307 27.6866 16.1066 27.5705 16.1292C27.4712 16.1486 27.3535 16.1527 27.257 16.121C26.9581 16.0227 26.6365 16.0353 26.3261 16.0353C25.4905 16.0353 24.6534 15.9692 23.8169 15.9692C22.4824 15.9692 21.2401 16.1085 20.0676 16.7968C19.237 17.2844 18.5165 17.9449 17.8458 18.6264C17.2378 19.2443 16.6154 20.0368 16.4155 20.8996C16.3206 21.3093 16.2311 21.7424 16.1669 22.1578C16.091 22.6492 16.0564 23.1042 16.0564 23.6019" stroke="#61177C" stroke-width="2" stroke-linecap="round" stroke-linejoin="round"/>
<path d="M8.19119 28.5875C8.03689 28.5875 7.87921 28.6556 7.71624 28.6556C7.4721 28.6556 7.24187 28.637 7.00129 28.5919C6.38667 28.4767 5.81844 28.2346 5.2569 27.968C4.73769 27.7215 4.24977 27.5092 3.8043 27.1268C3.54188 26.9014 3.27472 26.688 3.04061 26.431C2.82148 26.1904 2.6402 25.9101 2.40984 25.6797C2.13384 25.4038 1.83482 24.9908 1.65023 24.6483C1.41122 24.2048 1.03955 23.5214 1.03955 22.9863" stroke="#61177C" stroke-width="2" stroke-linecap="round" stroke-linejoin="round"/>
</svg>
